<?xml version="1.0" standalone="no"?>
<!DOCTYPE svg PUBLIC "-//W3C//DTD SVG 1.1//EN" "http://www.w3.org/Graphics/SVG/1.1/DTD/svg11.dtd" >
<svg xmlns="http://www.w3.org/2000/svg">
<metadata></metadata>
<defs>
<font id="ac_lineregular" horiz-adv-x="944" >
<font-face units-per-em="2048" ascent="1536" descent="-512" />
<missing-glyph horiz-adv-x="614" />
<glyph horiz-adv-x="2048" />
<glyph horiz-adv-x="2048" />
<glyph unicode="&#xd;" horiz-adv-x="2048" />
<glyph unicode=" "  horiz-adv-x="614" />
<glyph unicode="&#x09;" horiz-adv-x="614" />
<glyph unicode="&#xa0;" horiz-adv-x="614" />
<glyph unicode="!" horiz-adv-x="270" d="M82 53q0 22 15.5 37.5t37.5 15.5t37.5 -15t15.5 -38q0 -22 -15.5 -37.5t-37.5 -15.5t-37.5 15.5t-15.5 37.5zM102 352v1051q0 13 10 23t23 10t23 -10t10 -23v-1051q0 -12 -10 -21t-23 -9q-12 0 -21.5 9t-11.5 21z" />
<glyph unicode="&#x22;" horiz-adv-x="434" d="M102 1102v299q0 13 10 23t23 10q12 0 21.5 -10t9.5 -23v-299q0 -12 -9.5 -21.5t-21.5 -9.5q-13 0 -23 9.5t-10 21.5zM268 1102v299q0 13 10 23t23 10q12 0 21.5 -10t9.5 -23v-299q0 -12 -9.5 -21.5t-21.5 -9.5q-13 0 -23 9.5t-10 21.5z" />
<glyph unicode="#" horiz-adv-x="1052" d="M72 33q0 6 2 10l178 465h-125q-13 0 -23 10t-10 23q0 12 10 21t23 9h149l111 289h-137q-14 0 -23.5 10t-9.5 23t9.5 23t23.5 10h162l186 487q3 9 12.5 15t18.5 6q6 0 10 -2q20 -7 20 -31q0 -6 -2 -10l-178 -465h254l187 487q7 21 30 21q7 0 11 -2q20 -7 20 -31 q0 -6 -2 -10l-178 -465h125q12 0 21 -9.5t11 -23.5q0 -13 -10 -23t-22 -10h-150l-110 -289h137q12 0 22 -8.5t11 -21.5q0 -13 -10.5 -23t-22.5 -10h-162l-186 -488q-6 -20 -31 -20q-6 0 -10 2q-9 3 -15 12.5t-6 18.5q0 6 2 10l178 465h-254l-186 -488q-6 -20 -31 -20 q-6 0 -10 2q-20 7 -20 31zM344 571h254l111 289h-254z" />
<glyph unicode="$" d="M102 299q0 13 10 22.5t23 8.5q12 0 21.5 -10t9.5 -23q0 -12 1 -32t17 -67t45 -77q61 -55 154 -55h182q96 0 154 55q29 30 45.5 74t17.5 73l2 29v250q0 12 -1.5 32t-18 66.5t-45.5 75.5q-55 55 -154 55h-2h-188q-118 6 -193 78q-33 33 -52.5 79.5t-23.5 75.5t-4 54v53 q0 29 4.5 67t24 94t51.5 89q71 74 201 74h59v149q0 13 9.5 23t21.5 10q15 0 25 -9.5t10 -23.5v-149h57q131 0 199 -74q84 -86 84 -221q-2 -13 -11.5 -23t-21.5 -10q-13 1 -22 11t-9 22q0 14 -1.5 33t-18 66t-45.5 77q-55 55 -154 55h-182q-102 0 -154 -55 q-34 -35 -48.5 -100.5t-14.5 -106.5v-37v-4q0 -12 1 -31.5t17 -66t45 -76.5q54 -57 154 -57h180h2q126 0 199 -76q84 -84 84 -221v-246q0 -139 -84 -221q-72 -78 -199 -78h-57v-147q0 -14 -10 -23.5t-25 -9.5q-12 0 -21.5 10t-9.5 23v147h-59q-126 0 -201 78q-80 82 -80 221 z" />
<glyph unicode="%" horiz-adv-x="897" d="M0 977v330q0 59 37 98q35 35 92 35h145q61 0 91 -35q38 -38 38 -102v-19v-307q0 -62 -38 -98q-30 -37 -91 -37h-145q-58 0 -92 37q-34 34 -37 98zM61 977q0 -35 23 -55q15 -15 45 -15h145q30 0 45 15q8 9 12.5 22.5t5.5 23.5l1 9v63v254v13q-1 32 -19 55q-20 16 -45 16 h-145q-25 0 -45 -16q-10 -10 -16 -24t-6 -22l-1 -9v-330zM154 33q0 -19 18 -29q8 -4 14 -4q22 0 29 20l526 1371q0 2 1 5t1 5q0 25 -18 33q-2 0 -7 1t-7 1q-22 0 -29 -23l-526 -1368q-2 -4 -2 -12zM494 135v330q0 60 36 98q35 35 93 35h145q60 0 90 -35q39 -39 39 -102v-19 v-307q0 -61 -39 -98q-30 -37 -90 -37h-145q-59 0 -93 37q-33 33 -36 98zM555 135q0 -35 23 -55q14 -14 45 -14h145q31 0 45 14q8 9 12.5 22.5t4.5 23.5l1 9v64v254v12q0 32 -18 55q-21 17 -45 17h-145q-24 0 -45 -17q-10 -10 -16 -24t-6 -22l-1 -9v-330z" />
<glyph unicode="&#x26;" horiz-adv-x="956" d="M100 303v37v203q0 13 2 30.5t9 52.5t26 72.5t47 65.5q23 29 60 45q-33 14 -60 45q-84 87 -84 223v19v55q0 20 3 46.5t23.5 81t57.5 91.5q73 76 203 76l45 4h129q127 0 205 -78q36 -38 56 -93t23 -82t3 -48q0 -13 -9.5 -24t-23.5 -11q-15 3 -24 14t-9 23q0 16 -2 38 t-18 66t-43 72q-54 57 -158 57h-174q-101 0 -158 -57q-63 -69 -63 -182v-68q0 -13 2 -33.5t17.5 -67.5t43.5 -77q54 -57 158 -57h395v108q0 12 10 21.5t25 9.5q12 0 21.5 -9.5t9.5 -21.5v-108h106q12 0 21.5 -10t9.5 -23t-9.5 -23t-21.5 -10h-106v-477q0 -21 -3 -47.5 t-23 -80.5t-56 -91q-75 -78 -205 -78q-9 0 -53 -1t-121 -1q-125 0 -203 78q-84 84 -84 225zM166 301q0 -13 2 -33.5t17.5 -67.5t43.5 -77q57 -57 158 -57q11 0 55 1t119 1q103 0 158 55q63 66 63 178v475h-272h-129q-98 0 -152 -57q-28 -30 -43.5 -74t-17.5 -73l-2 -29v-242 z" />
<glyph unicode="'" horiz-adv-x="268" d="M102 1102v299q0 13 10 23t23 10q12 0 21.5 -10t9.5 -23v-299q0 -12 -9.5 -21.5t-21.5 -9.5q-13 0 -23 9.5t-10 21.5z" />
<glyph unicode="(" horiz-adv-x="331" d="M133 68v1321q0 62 22 121.5t62 99.5q55 51 113 67q49 11 88 11q13 0 23 -10.5t10 -22.5q0 -24 -25 -31q-1 0 -3.5 -1t-4.5 -1q-41 0 -68 -8q-54 -12 -86 -47q-29 -30 -45.5 -74t-18.5 -73l-1 -29v-1336q0 -12 1.5 -32t18 -67t45.5 -77q51 -57 154 -57q13 0 23 -9.5 t10 -21.5t-10 -21.5t-23 -9.5q-131 0 -201 76q-36 37 -56 91.5t-23 81t-3 46.5q0 3 -1 8z" />
<glyph unicode=")" horiz-adv-x="331" d="M-119 -209q0 12 10 21.5t23 9.5q103 0 154 57q29 30 45.5 74t18.5 73l1 29v1336q0 12 -1.5 32t-18 67t-45.5 77q-32 35 -86 47q-27 8 -68 8q-2 0 -4.5 1t-3.5 1q-25 7 -25 31q0 12 10 22.5t23 10.5q38 0 88 -11q58 -16 113 -67q40 -40 62 -99.5t22 -121.5v-1321l-1 -5 q-1 -5 -1 -8q0 -20 -3 -46.5t-23 -81t-56 -91.5q-70 -76 -201 -76q-13 0 -23 9.5t-10 21.5z" />
<glyph unicode="*" horiz-adv-x="536" d="M72 1262q0 9 7 16.5t17 7.5h129l-65 113q-2 4 -2 10q0 17 12 23q4 2 12 2q14 0 21 -11l65 -112l64 112q11 11 22 11q9 0 13 -2q12 -6 12 -21q0 -4 -4 -12l-64 -113h129q10 0 17.5 -7.5t7.5 -16.5q0 -10 -7.5 -17.5t-17.5 -7.5h-129l64 -113q4 -8 4 -14q0 -12 -12 -18 q-10 -5 -13 -5q-14 0 -20 13l-66 112l-65 -112q-7 -13 -21 -13q-2 0 -12 5q-12 6 -12 18q0 6 4 14l63 113h-129q-10 0 -17 7t-7 18z" />
<glyph unicode="+" d="M102 723q0 15 9.5 25t21.5 10h305v305q0 12 10 21.5t25 9.5q12 0 21.5 -9.5t9.5 -21.5v-305h305q13 0 22 -10t11 -25q0 -12 -10 -21.5t-23 -9.5h-305v-305q0 -13 -9.5 -23t-21.5 -10q-15 0 -25 9.5t-10 23.5v305h-305q-12 0 -21.5 9.5t-9.5 21.5z" />
<glyph unicode="," horiz-adv-x="276" d="M61 -115q0 1 1 4.5t1 4.5l60 186q6 22 31 22h8q22 -9 22 -32v-9l-59 -186q-6 -22 -31 -22q-6 0 -8 2q-25 7 -25 30z" />
<glyph unicode="-" horiz-adv-x="569" d="M102 721q0 12 10 21.5t23 9.5h297q15 0 25 -9.5t10 -21.5q0 -15 -10 -25t-25 -10h-297q-14 0 -23.5 10t-9.5 25z" />
<glyph unicode="." horiz-adv-x="278" d="M74 53q0 22 15.5 37.5t37.5 15.5t37.5 -15t15.5 -38q0 -22 -15.5 -37.5t-37.5 -15.5t-37.5 15.5t-15.5 37.5z" />
<glyph unicode="/" horiz-adv-x="794" d="M102 33q0 8 2 12l527 1368q7 23 28 23q2 0 7.5 -1t7.5 -1q18 -8 18 -33q0 -2 -1 -5t-1 -5l-526 -1371q-7 -20 -29 -20q-6 0 -14 4q-19 11 -19 29z" />
<glyph unicode="0" horiz-adv-x="905" d="M123 299v850q0 20 3 46.5t23 81.5t56 93q76 76 205 76h88q126 0 202 -76q82 -85 82 -223v-848q0 -25 -4 -54t-24.5 -80.5t-55.5 -86.5q-75 -78 -202 -78h-88q-125 0 -201 76q-84 84 -84 223zM186 297q0 -79 41 -143l391 1198q-50 30 -120 30h-90q-99 0 -156 -57 q-29 -30 -45.5 -77t-18.5 -67.5t-2 -33.5v-684v-166zM276 100q52 -37 134 -37h88q97 0 155 58q66 69 66 178v168v680q0 90 -49 158q-313 -961 -391 -1194z" />
<glyph unicode="1" horiz-adv-x="620" d="M-4 1108q0 16 12 25l432 309q9 6 25 6q13 0 23 -10t10 -23v-1382q0 -13 -10 -23t-23 -10q-12 0 -21.5 9.5t-11.5 23.5v1323l-385 -277q-9 -6 -18 -6q-16 0 -27 14q-6 9 -6 21z" />
<glyph unicode="2" horiz-adv-x="923" d="M123 37v348v10q0 25 4 53.5t24 75t54 80.5q73 76 198 76h142q1 0 3 1t3 1q99 0 154 55q63 66 63 178v234q0 16 -2 37.5t-18 65t-43 71.5q-57 57 -154 57h-148q-96 0 -153 -57q-27 -28 -43 -71t-18.5 -65t-2.5 -38q0 -6 -7.5 -14.5t-15.5 -13.5t-9 -5q-12 0 -21.5 9 t-9.5 22v10q0 25 4 54t24 76t54 81q73 76 198 76h148q126 0 199 -76q34 -34 53.5 -81.5t23.5 -76t4 -53.5v-10v-72v-162v-10q0 -25 -4 -53.5t-23.5 -76t-53.5 -81.5q-73 -76 -199 -76h-148q-99 0 -153 -57q-64 -64 -64 -174v-315h609q13 0 22.5 -9.5t9.5 -23.5t-9.5 -23.5 t-22.5 -9.5h-641q-12 0 -21.5 10t-9.5 23z" />
<glyph unicode="3" horiz-adv-x="837" d="M4 295q2 13 11.5 23t21.5 10q14 0 23.5 -11t9.5 -24q0 -16 2 -37.5t18 -65t43 -71.5q56 -56 154 -56h145q101 0 154 56q29 30 45.5 77t18 66t1.5 33v72v206q0 14 -1.5 33.5t-18 66t-45.5 75.5q-51 57 -154 57h-98q-15 0 -23 8q-14 8 -14 27q0 8 4 16l317 518h-577 q-13 0 -23 9.5t-10 21.5q0 13 10 23t23 10h639h6q2 -2 6 -2q0 -2 2 -3q1 0 2 -1q6 -5 6 -7q5 -4 5 -6q2 -2 2 -6v-6v-6q0 -6 -2 -6q0 -1 -1 -3t-1 -3l-320 -521h47q129 0 201 -75q82 -82 82 -224v-274q0 -25 -3.5 -53t-23.5 -80t-55 -88q-76 -76 -201 -76h-145 q-125 0 -201 76q-36 38 -56 92.5t-23 81t-3 47.5z" />
<glyph unicode="4" horiz-adv-x="845" d="M35 565q0 12 6 21q359 492 575 788q48 65 48 66q4 4 14 8t12 4q12 0 21.5 -10t9.5 -23v-825h121q13 0 22.5 -9.5t9.5 -23.5t-9.5 -23.5t-22.5 -9.5h-121v-491q0 -13 -9.5 -23t-23.5 -10t-23.5 10t-9.5 23v491h-585q-12 0 -25 13q-10 10 -10 24zM131 594h414h112v733z" />
<glyph unicode="5" horiz-adv-x="962" d="M123 299q0 13 9.5 23t23.5 10q12 0 21 -10t9 -23t2 -33t18.5 -66.5t45.5 -76.5q52 -55 154 -55h145q99 0 154 55q63 66 63 176v72v209q0 16 -2 37.5t-18 64.5t-43 70q-54 57 -156 57h-426v600q0 14 10 23.5t25 9.5h649q13 0 23 -10t10 -23q0 -12 -10 -21.5t-23 -9.5h-621 v-506h365q129 0 201 -75q82 -85 82 -224v-276q0 -20 -3 -46t-23 -80.5t-56 -92.5q-76 -76 -201 -76h-145q-125 0 -201 76q-36 38 -56 92.5t-23 81t-3 47.5z" />
<glyph unicode="6" horiz-adv-x="993" d="M123 303v43v799q0 20 3 46.5t23 81.5t56 93q76 76 203 76h180q127 0 200 -76q36 -38 56 -92t23 -80.5t3 -48.5q0 -27 -32 -31q-14 0 -23.5 10.5t-9.5 24.5q0 15 -2.5 37t-18.5 64.5t-43 70.5q-57 57 -153 57h-180q-99 0 -156 -57q-30 -31 -46.5 -75t-17.5 -72l-2 -29 v-303h398q129 0 202 -76q82 -85 82 -223v-76v-168q0 -16 -2 -35t-9 -52.5t-25.5 -68.5t-45.5 -63q-75 -78 -202 -78h-176q-125 0 -203 78q-40 41 -61 101t-21 122zM186 303q0 -13 2 -33.5t18.5 -67.5t45.5 -77q54 -57 156 -57h176q101 0 155 57q66 66 66 176v41v203 q0 16 -2.5 38t-19 66t-44.5 72q-54 57 -155 57h-23h-375v-311v-164z" />
<glyph unicode="7" horiz-adv-x="731" d="M-43 1415q0 12 10 21.5t23 9.5q98 0 308 1t329 1q8 0 12 -2q23 -7 23 -31v-8l-404 -1380q-7 -27 -31 -27q-2 0 -4.5 1t-3.5 1q-24 7 -24 39l395 1341h-600q-14 0 -23.5 10t-9.5 23z" />
<glyph unicode="8" horiz-adv-x="991" d="M123 301v39v205q0 16 2 35t9 52.5t25.5 68.5t45.5 63q30 30 59 45q-21 9 -59 43q-82 85 -82 225v19v55q0 16 2 35t9 52.5t25.5 68.5t45.5 63q75 78 203 78h45h131q124 0 202 -78q82 -85 82 -225v-74q0 -15 -2 -34t-9 -52t-25.5 -68t-45.5 -63q-30 -30 -59 -45 q29 -15 59 -45q82 -85 82 -223v-76v-168q0 -15 -2 -34t-9 -52.5t-25.5 -69t-45.5 -63.5q-76 -76 -202 -76h-41q-2 -2 -6 -2h-129q-128 0 -203 78q-82 85 -82 223zM186 299q0 -16 2.5 -38t19 -66t44.5 -72q54 -57 156 -57h45h131q101 0 155 57q30 31 46.5 75t18.5 72l1 29v41 v203q0 16 -2.5 38t-19 66t-44.5 72q-54 57 -143 57h-201q-89 -3 -143 -57q-66 -66 -66 -176v-78v-166zM186 1073q0 -16 2.5 -38t19 -66t44.5 -72q51 -51 143 -57q4 2 13 2h45h143q92 3 143 57q66 66 66 176v21v55q0 15 -2.5 36.5t-19 65.5t-44.5 72q-54 57 -155 57h-176 q-102 0 -156 -57q-66 -66 -66 -180v-72z" />
<glyph unicode="9" horiz-adv-x="958" d="M123 868v277q0 21 3 47.5t23 80.5t56 91q73 76 201 76h145q128 0 201 -76q82 -85 82 -221v-62q2 -4 2 -10v-205q0 -19 -2.5 -43.5t-19.5 -75.5t-48 -88l-367 -645q-11 -14 -26 -14q-11 0 -17 6q-16 10 -16 27q0 9 6 18l289 527q-38 -9 -82 -9h-147q-128 0 -201 76 q-82 85 -82 223zM188 864q0 -15 2.5 -37t18.5 -65.5t43 -71.5q55 -55 154 -55q88 0 103 -2h1h43q97 0 154 57l12 12q51 63 51 162v117v162q0 14 -1.5 33t-18 66t-45.5 77q-57 57 -154 57h-145q-97 0 -154 -57q-64 -67 -64 -174v-74v-207z" />
<glyph unicode=":" horiz-adv-x="260" d="M78 53q0 22 15.5 37.5t37.5 15.5t37.5 -15t15.5 -38q0 -22 -15.5 -37.5t-37.5 -15.5t-37.5 15.5t-15.5 37.5zM90 639q0 22 15.5 37.5t37.5 15.5t38 -15t16 -38q0 -22 -16 -37.5t-38 -15.5t-37.5 15.5t-15.5 37.5z" />
<glyph unicode=";" horiz-adv-x="284" d="M61 -115q0 1 1 4.5t1 4.5l60 186q6 22 31 22h8q22 -9 22 -32v-9l-59 -186q-6 -22 -31 -22q-6 0 -8 2q-25 7 -25 30zM90 639q0 22 15.5 37.5t37.5 15.5t38 -15t16 -38q0 -22 -16 -37.5t-38 -15.5t-37.5 15.5t-15.5 37.5z" />
<glyph unicode="&#x3c;" horiz-adv-x="542" d="M102 715v6q0 5 1.5 9t5 8t4.5 7l272 271q7 10 23 10q12 0 22 -10t10 -23q-8 -20 -10 -22l-61 -62q-1 0 -21 -20l-92 -92l-76 -74l250 -250q8 -8 8 -22q0 -15 -8 -23q-10 -10 -22 -10q-18 3 -23 10l-96 96l-94 92l-23 21l-59 61z" />
<glyph unicode="=" d="M102 547q0 13 9.5 23t21.5 10h678q12 0 21.5 -10t9.5 -23q0 -12 -9.5 -21.5t-21.5 -9.5h-678q-12 0 -21.5 9.5t-9.5 21.5zM102 899q0 15 9.5 25t21.5 10h678q12 0 21.5 -10t9.5 -25q0 -12 -9.5 -21.5t-21.5 -9.5h-678q-12 0 -21.5 9.5t-9.5 21.5z" />
<glyph unicode="&#x3e;" horiz-adv-x="542" d="M102 993q0 12 11 23q10 10 22 10q16 0 23 -10l272 -271q1 -2 4 -6.5t4.5 -8.5t1.5 -9v-6l-10 -17l-59 -61l-23 -21l-94 -92l-96 -96q-5 -7 -23 -10q-12 0 -22 10q-9 9 -9 23q0 13 9 22l249 250l-75 74l-92 92l-21 20l-61 62q-4 4 -11 22z" />
<glyph unicode="?" horiz-adv-x="897" d="M113 975v164v10q0 25 4 54t24 76t54 81q76 76 200 76h146q124 0 200 -76q82 -85 82 -223v-148q0 -139 -82 -221q-61 -61 -136.5 -129.5t-96.5 -89.5q-64 -64 -64 -197q0 -12 -9.5 -21t-22.5 -9t-23 9t-10 25q0 25 3.5 56.5t23.5 89t55 92.5q24 24 106.5 97.5t128.5 121.5 q64 64 64 178v150q0 15 -2.5 37t-18.5 65.5t-43 71.5q-57 57 -155 57h-146q-98 0 -155 -57q-64 -67 -64 -176v-164q0 -12 -10 -21.5t-23 -9.5q-12 0 -21 9.5t-9 21.5zM358 55q0 22 15.5 38t38.5 16q22 0 37.5 -15.5t15.5 -38.5q0 -22 -15.5 -37.5t-37.5 -15.5 q-23 0 -38.5 15.5t-15.5 37.5z" />
<glyph unicode="@" horiz-adv-x="937" d="M102 297v842q0 13 2 31t9 52t26 71t47 65q75 78 201 78h174q126 0 201 -78q80 -80 80 -221v-944q0 -14 -9 -22.5t-24 -8.5h-260q-126 0 -201 78q-82 85 -82 221v160q0 16 2.5 36.5t9.5 52.5t25.5 66.5t44.5 61.5q73 73 201 73h231l-2 238q0 34 -14 82t-49 84 q-55 55 -154 55h-174q-101 0 -156 -55q-63 -66 -63 -174v-680v-164q0 -17 2.5 -38.5t18 -64.5t42.5 -73q55 -55 156 -55h424q12 0 21.5 -10t9.5 -23t-9.5 -23t-21.5 -10h-424q-126 0 -201 78q-37 38 -57.5 92.5t-23.5 80.5t-3 46zM332 459q0 -113 61 -176q56 -56 156 -56 h231v623h-231q-97 0 -156 -59q-26 -27 -41.5 -70t-17.5 -64.5t-2 -38.5v-159z" />
<glyph unicode="A" d="M102 31v1108q0 20 3 46t23 80.5t56 92.5q76 76 201 76h174q125 0 201 -76q40 -41 61 -101t21 -122v-1104q0 -12 -9.5 -21.5t-21.5 -9.5q-13 0 -23 9.5t-10 21.5v573h-612v-573q0 -12 -10 -21.5t-23 -9.5q-12 0 -21.5 9.5t-9.5 21.5zM166 668h612v471q0 16 -2.5 37.5 t-18.5 65t-44 71.5q-54 57 -154 57h-174q-99 0 -156 -57q-63 -66 -63 -176v-469z" />
<glyph unicode="B" horiz-adv-x="913" d="M102 33v1108q0 20 3 46t23 80.5t56 92.5q76 76 201 76h174q125 0 201 -76q82 -85 82 -225v-72q0 -15 -2 -34t-9 -52t-25.5 -68t-45.5 -63q-22 -25 -58 -43q39 -23 58 -45q82 -82 82 -221v-76v-166q0 -24 -3.5 -51.5t-23.5 -79t-55 -86.5q-73 -76 -201 -76h-131h-293 q-13 0 -23 9.5t-10 21.5zM166 66h373h20q101 0 156 55q63 66 63 176v164v78q0 16 -2 37.5t-18 65t-43 71.5q-54 57 -144 57h-405v-704zM166 834h264h141q90 3 144 57q63 66 63 176v20v54q0 16 -2 37.5t-18 65t-43 71.5q-57 57 -156 57h-174q-97 0 -154 -57 q-29 -30 -45.5 -77t-18 -66t-1.5 -33v-305z" />
<glyph unicode="C" horiz-adv-x="937" d="M102 297v10v832q0 20 3 46t23 80.5t56 92.5q48 48 113 63q47 13 88 13h154q124 0 200 -76q34 -34 54 -81.5t24 -77t4 -54.5v-10q0 -12 -10 -21.5t-23 -9.5t-21.5 10.5t-8.5 24.5q0 15 -2.5 37t-18.5 65.5t-43 71.5q-55 55 -147 55h-162q-43 0 -74 -8q-54 -18 -80 -47 q-65 -65 -65 -176v-840q0 -14 1.5 -33.5t18 -67t45.5 -77.5q56 -56 154 -56h178q101 0 156 58q27 28 42.5 71t18 64.5t2.5 38.5q0 14 10 23.5t27 9.5q10 0 18.5 -9.5t10.5 -21.5q0 -14 -2 -32t-9 -52.5t-26 -71.5t-47 -65q-73 -76 -201 -76h-178q-128 0 -201 76 q-82 85 -82 221z" />
<glyph unicode="D" horiz-adv-x="937" d="M106 33v1370q0 13 10 23t23 10h430q125 0 201 -76q82 -85 82 -223v-836q0 -14 -2 -32t-8.5 -53t-25 -72t-46.5 -66q-73 -76 -201 -76h-3h-3h-3h-3h-3h-3h-3h-7h-402q-13 0 -23 9.5t-10 21.5zM170 66h283h116q100 0 154 57q30 30 46.5 73.5t17.5 71.5l1 29q0 6 -2 8v842 q0 105 -63 168q-57 57 -154 57h-399v-1306z" />
<glyph unicode="E" horiz-adv-x="913" d="M102 31v1108q0 20 3 46t23 80.5t56 92.5q76 76 201 76h29h381q13 0 22.5 -9.5t9.5 -23.5q0 -12 -9.5 -21.5t-22.5 -9.5h-293h-117q-97 0 -154 -57q-65 -65 -65 -176v-306h371q12 0 21 -9t9 -21q0 -13 -9 -23t-21 -10h-371v-705h643q14 0 23.5 -9.5t9.5 -22.5 q0 -12 -10 -21.5t-23 -9.5h-272h-402q-13 0 -23 9.5t-10 21.5z" />
<glyph unicode="F" horiz-adv-x="843" d="M100 35q2 1104 2 1108q0 15 2 34t9 52t25.5 68t45.5 63q76 76 201 76h410q13 0 22.5 -9.5t9.5 -23.5q0 -12 -9.5 -21.5t-22.5 -9.5h-410q-99 0 -156 -57q-63 -66 -63 -176v-305h371q12 0 21 -9.5t9 -21.5q0 -13 -9 -23t-21 -10h-371v-735q0 -13 -10 -23t-23 -10t-23 10 t-10 23z" />
<glyph unicode="G" horiz-adv-x="937" d="M102 301v844q0 15 2 34t9 52t25.5 68t45.5 63q48 48 113 65q49 11 88 11h154q124 0 200 -76q82 -84 82 -221q0 -13 -9.5 -23t-23.5 -10q-13 1 -21.5 11.5t-8.5 23.5q0 15 -2.5 37t-19 65.5t-44.5 71.5q-54 57 -153 57h-154q-36 0 -74 -10q-50 -12 -80 -47 q-65 -65 -65 -176v-842q0 -16 2.5 -37.5t18.5 -65t44 -71.5q54 -57 154 -57h178q102 0 156 57q63 63 63 170v211h-262q-13 0 -23 9.5t-10 21.5q0 13 9.5 22.5t23.5 9.5h293q13 0 25 -8q8 -8 8 -24v-236q0 -25 -3.5 -53t-23.5 -80t-55 -88q-73 -76 -201 -76h-178 q-128 0 -201 76q-82 85 -82 221z" />
<glyph unicode="H" d="M102 31v1370q0 13 9.5 23t21.5 10q13 0 23 -10t10 -23v-574h610v574q0 13 10 23t23 10t23 -10t10 -23v-1370q0 -12 -9.5 -21.5t-21.5 -9.5q-13 0 -23 9.5t-10 21.5v733h-612v-733v-4q0 -10 -9.5 -18.5t-21.5 -8.5q-13 0 -23 9.5t-10 21.5z" />
<glyph unicode="I" horiz-adv-x="272" d="M102 694q0 635 4 721q0 13 9.5 23t21.5 10q13 0 23 -10t10 -23v-1382q0 -13 -10 -23t-23 -10q-12 0 -21.5 10t-9.5 23q-4 8 -4 661z" />
<glyph unicode="J" horiz-adv-x="837" d="M25 299q0 13 9 22t23 9q13 0 22 -10.5t9 -24.5q0 -15 2.5 -37t18.5 -65.5t43 -71.5q55 -55 153 -55h148q98 0 153 55q64 67 64 176v1104q0 14 9.5 23.5t22.5 9.5q14 0 23.5 -10t9.5 -23v-1106q0 -20 -3 -46t-23 -80.5t-56 -92.5q-76 -76 -200 -76h-148q-124 0 -199 78 q-81 81 -81 221z" />
<glyph unicode="K" horiz-adv-x="915" d="M102 33v1370q0 13 10 23t23 10q12 0 21.5 -10t9.5 -23v-569h387q88 6 139 57q64 67 64 176v72v264q0 14 9.5 23.5t22.5 9.5q12 0 21.5 -10t9.5 -23q2 -295 2 -299v-39q0 -20 -3 -46t-23.5 -80.5t-57.5 -92.5q-25 -24 -47 -37q38 -17 72 -51q82 -85 82 -221v-209v-295 q0 -12 -10 -21.5t-23 -9.5q-12 0 -21.5 9.5t-11.5 21.5v295q0 4 2 10v199q0 14 -1.5 33.5t-18 67t-45.5 77.5q-55 55 -158 55h-389v-737q0 -12 -10 -21.5t-23 -9.5t-23 9.5t-10 21.5z" />
<glyph unicode="L" horiz-adv-x="843" d="M102 293v1108q0 13 9.5 23t21.5 10q13 0 23 -10t10 -23v-1104q0 -110 63 -176q58 -58 156 -58h410q13 0 22.5 -9t9.5 -21q0 -14 -9.5 -23.5t-22.5 -9.5h-410q-125 0 -201 76q-27 28 -45.5 63t-25.5 68t-9 52t-2 34z" />
<glyph unicode="M" horiz-adv-x="1124" d="M102 33v1370q0 13 11 22t26 9q19 0 27 -23l131 -418l266 -852l297 955l98 315q8 23 33 23q12 0 21.5 -8.5t9.5 -22.5v-1370q0 -13 -9.5 -23t-21.5 -10q-13 0 -23 10t-10 23v1122l13 102l-25 -104l-352 -1130q0 -10 -10.5 -16.5t-22.5 -6.5q-10 0 -17.5 6t-9.5 12l-2 5 l-352 1130l-24 104l12 -102v-1122q0 -13 -10 -23t-23 -10q-12 0 -21.5 9.5t-11.5 23.5z" />
<glyph unicode="N" horiz-adv-x="942" d="M102 33v1370q0 13 10 23t23 10q4 0 6 -2q1 0 4.5 1t4.5 1q18 0 26 -19l76 -157l500 -1065l28 -74l-6 67v1215q2 13 11.5 23t21.5 10q13 0 23 -10t10 -23v-1370q0 -13 -10 -23t-23 -10q-1 0 -3 1t-3 1t-4 -1t-4 -1q-18 0 -29 18l-31 70l-545 1153l-28 74l6 -68v-1214 q0 -13 -10 -23t-23 -10q-12 0 -21.5 10t-9.5 23z" />
<glyph unicode="O" d="M102 299v842q0 20 3 46t23 80t56 91q75 78 201 78h174q126 0 201 -78q82 -82 82 -221v-844q0 -22 -3.5 -50.5t-24 -79t-54.5 -85.5q-75 -78 -201 -78h-174q-126 0 -201 78q-82 85 -82 221zM166 297q0 -16 3 -39t19 -66t43 -71q55 -55 154 -55h174q101 0 156 55 q63 66 63 176v844q0 16 -2 37.5t-18 65t-43 71.5q-55 55 -156 55h-174q-99 0 -154 -55q-65 -65 -65 -176v-842z" />
<glyph unicode="P" horiz-adv-x="913" d="M102 33v1110q0 15 2 34t9 52t25.5 68t45.5 63q76 76 201 76h174q125 0 201 -76q40 -41 61 -101t21 -122v-33v-201q0 -21 -3 -47.5t-23 -81t-56 -92.5q-76 -76 -201 -76h-393v-573q0 -12 -10 -21.5t-23 -9.5q-12 0 -21.5 9.5t-9.5 21.5zM166 670h393q97 0 154 57 q65 65 65 176v72v164q0 14 -1.5 33t-18 66t-45.5 77q-57 57 -154 57h-174q-99 0 -156 -57q-63 -66 -63 -176v-469z" />
<glyph unicode="Q" horiz-adv-x="946" d="M102 297v842q0 20 3 46t23.5 80t57.5 91q75 78 199 78h176q123 0 199 -76q40 -42 62 -101t22 -120v-846q0 -87 -43 -162l71 -74q9 -9 9 -22q0 -14 -9 -23q-8 -10 -26 -10q-14 4 -19 10q-66 66 -67 66q-73 -76 -199 -76h-176q-125 0 -201 76q-82 85 -82 221zM168 295 q0 -17 2.5 -39t18 -65t42.5 -70q55 -58 154 -58h176q95 0 156 58l-78 78l-25 20l-59 64q-8 8 -8 22q0 11 8 23q8 8 23 8q14 0 22 -10l154 -150q24 56 24 119v844q0 16 -2 37.5t-18 65t-43 71.5q-57 57 -154 57h-176q-97 0 -154 -57q-63 -66 -63 -176v-842z" />
<glyph unicode="R" horiz-adv-x="913" d="M72 31v1370q0 14 9.5 23.5t22.5 9.5q5 0 9 -2q2 2 8 2h407q125 0 201 -76q34 -34 54 -81t24 -76t4 -54v-10v-164v-74v-10q0 -25 -4 -54.5t-24 -77t-54 -81.5q-22 -22 -57 -43q36 -22 57 -45q34 -34 54 -80.5t24 -75t4 -53.5v-10v-338q0 -12 -9.5 -21.5t-21.5 -9.5 q-13 0 -22.5 9.5t-9.5 21.5v338q0 109 -64 176q-52 52 -143 55h-142h-264v-569q0 -12 -9.5 -21.5t-21.5 -9.5q-13 0 -22.5 9.5t-9.5 21.5zM135 666h262h144q88 0 143 55q27 28 43 71.5t18.5 65.5t2.5 37v78v164q0 109 -64 176q-57 57 -156 57h-20h-373v-704z" />
<glyph unicode="S" d="M100 297q0 13 10.5 23t22.5 10q14 -1 23.5 -11.5t9.5 -23.5q0 -16 2 -37.5t18 -65t43 -71.5q55 -55 154 -55h182q99 0 154 55q63 66 63 176v72v178q0 16 -2 37.5t-18 65t-43 71.5q-55 55 -156 55h-162h-24q-123 3 -195 78q-72 72 -82 209v39v14q9 173 82 248 q73 76 201 76h182q128 0 201 -76q36 -38 56 -92t23 -80.5t3 -48.5q0 -13 -9.5 -22t-23.5 -9t-23.5 10.5t-9.5 24.5q0 16 -2 37t-18 64t-43 71q-57 57 -154 57h-182q-100 0 -154 -57q-54 -54 -65 -207v-41q0 -16 2 -37t18 -64t43 -73q55 -55 160 -55h10h168q125 0 201 -76 q82 -85 82 -223v-246q0 -21 -3 -47.5t-23 -81t-56 -92.5q-76 -76 -201 -76h-182q-125 0 -201 76q-36 38 -56 92.5t-23 81t-3 47.5z" />
<glyph unicode="T" horiz-adv-x="899" d="M29 1405q0 12 9 21.5t21 9.5h781q13 0 22.5 -9.5t9.5 -21.5q0 -14 -9.5 -23.5t-22.5 -9.5h-359v-1337q0 -13 -9 -23t-21 -10q-13 0 -23 10t-10 23v1337h-359q-12 0 -21 10t-9 23z" />
<glyph unicode="U" d="M102 289v10v1116q0 13 10 23t23 10q12 0 21.5 -10t9.5 -23v-1120q0 -17 2.5 -38.5t18 -64.5t42.5 -71q55 -55 156 -55h174q99 0 154 55q36 37 49.5 85.5t13.5 82.5v8v1118q0 13 10 23t23 10t23 -10t10 -23v-1122q0 -22 -3.5 -50.5t-24 -79.5t-54.5 -87q-76 -76 -201 -76 h-174q-125 0 -201 76q-34 34 -54 81.5t-24 77t-4 54.5z" />
<glyph unicode="V" horiz-adv-x="831" d="M-6 1399q0 27 22 35h9q22 0 32 -23l359 -1261l358 1261q9 23 39 23q25 -6 25 -33v-8l-392 -1368q-7 -25 -30 -25q-11 0 -20.5 7.5t-10.5 17.5z" />
<glyph unicode="W" horiz-adv-x="1161" d="M-23 1386v9q0 21 29 30q26 0 33 -26l297 -1227l211 883l-80 336q0 21 29 34q13 0 23 -7t11 -19l295 -1227l295 1227q3 12 14 19t25 7q25 -11 25 -39l-328 -1357q-3 -22 -22 -25l-811 -4l811 4q0 -2 -9 -2q-4 0 -6 2q-1 0 -796 -4q1 0 796 4q-21 3 -24 25l-215 889 l-213 -889q-3 -21 -25 -25l-319 -4l319 4q-4 -2 -8 -2q-6 0 -6 2l-305 -4l305 4q-20 3 -23 25z" />
<glyph unicode="X" horiz-adv-x="845" d="M41 33q0 6 4 14l342 741l-276 601q-5 10 -5 14q0 23 19 29q8 4 14 4q18 0 29 -19l254 -553l256 553q11 19 29 19q6 0 14 -4q18 -7 18 -29q0 -6 -4 -14l-276 -601l342 -741q4 -8 4 -14q0 -19 -21 -29q-8 -4 -12 -4q-22 0 -29 20l-321 693l-320 -693q-7 -20 -28 -20 q-3 0 -15 4q-18 11 -18 29z" />
<glyph unicode="Y" horiz-adv-x="761" d="M0 1403q0 22 18 31q4 2 15 2q19 0 28 -19l320 -692l319 692q10 19 29 19q10 0 14 -2q19 -10 19 -29q0 -6 -4 -14l-344 -748v-610q0 -13 -10 -23t-23 -10t-23 10t-10 23v610l-346 748q-2 4 -2 12z" />
<glyph unicode="Z" horiz-adv-x="845" d="M98 31q0 8 4 16l619 1333q-25 0 -100 -2t-138 -2q-85 0 -169 0.5t-136 1.5t-47 2q-13 0 -23 9.5t-10 21.5q0 13 9.5 22t23.5 11h641h8q4 -2 6 -4q19 -10 19 -27q0 -6 -4 -14l-619 -1336h590q14 0 23.5 -9.5t9.5 -22.5q0 -12 -10 -21.5t-23 -9.5h-641q-13 0 -23 9.5 t-10 21.5z" />
<glyph unicode="[" horiz-adv-x="270" d="M102 -215v1870q0 8 2 10q7 21 25 21h8h293q11 0 20 -9.5t9 -21.5q0 -13 -9 -23t-20 -10h-262v-1798h262q11 0 20 -10t9 -23t-9 -23t-20 -10h-293q-14 0 -23.5 8t-11.5 19z" />
<glyph unicode="\" horiz-adv-x="794" d="M102 1401q0 25 19 33q2 0 7 1t7 1q22 0 29 -23l526 -1368q2 -4 2 -12q0 -19 -18 -29q-8 -4 -15 -4q-21 0 -28 20l-527 1371q0 2 -1 5t-1 5z" />
<glyph unicode="]" horiz-adv-x="270" d="M-115 -209q0 13 9 23t20 10h262v1798h-262q-11 0 -20 10t-9 23q0 12 9 21.5t20 9.5h293h8q18 0 25 -21q2 -2 2 -10v-1870q-2 -11 -11.5 -19t-23.5 -8h-293q-11 0 -20 10t-9 23z" />
<glyph unicode="^" horiz-adv-x="542" d="M-25 1569q3 16 11 24l96 97l92 92l21 22q0 1 61 60q6 6 18 10h9q13 -3 20 -10l272 -271q9 -12 9 -24q0 -14 -9 -23q-12 -8 -22 -8q-13 0 -25 8l-61 60l-21 24l-92 90l-73 76l-250 -250q-10 -10 -23 -10q-12 0 -22 10q-11 11 -11 23z" />
<glyph unicode="_" horiz-adv-x="675" d="M-31 35q0 15 9.5 25t23.5 10h674q15 0 25 -10t10 -25q0 -12 -10 -21.5t-25 -9.5h-674q-13 0 -23 9.5t-10 21.5z" />
<glyph unicode="`" horiz-adv-x="274" d="M51 1405q0 8 5.5 15t10.5 10.5t7 3.5q4 2 10 2q24 0 31 -23l104 -283q2 -4 2 -10q0 -8 -4.5 -15t-9 -10t-6.5 -3q-4 -2 -13 -2q-24 0 -30 22l-105 283q-2 4 -2 10z" />
<glyph unicode="a" d="M102 31v1108q0 20 3 46t23 80.5t56 92.5q76 76 201 76h174q125 0 201 -76q40 -41 61 -101t21 -122v-1104q0 -12 -9.5 -21.5t-21.5 -9.5q-13 0 -23 9.5t-10 21.5v573h-612v-573q0 -12 -10 -21.5t-23 -9.5q-12 0 -21.5 9.5t-9.5 21.5zM166 668h612v471q0 16 -2.5 37.5 t-18.5 65t-44 71.5q-54 57 -154 57h-174q-99 0 -156 -57q-63 -66 -63 -176v-469z" />
<glyph unicode="b" horiz-adv-x="913" d="M102 33v1108q0 20 3 46t23 80.5t56 92.5q76 76 201 76h174q125 0 201 -76q82 -85 82 -225v-72q0 -15 -2 -34t-9 -52t-25.5 -68t-45.5 -63q-22 -25 -58 -43q39 -23 58 -45q82 -82 82 -221v-76v-166q0 -24 -3.5 -51.5t-23.5 -79t-55 -86.5q-73 -76 -201 -76h-131h-293 q-13 0 -23 9.5t-10 21.5zM166 66h373h20q101 0 156 55q63 66 63 176v164v78q0 16 -2 37.5t-18 65t-43 71.5q-54 57 -144 57h-405v-704zM166 834h264h141q90 3 144 57q63 66 63 176v20v54q0 16 -2 37.5t-18 65t-43 71.5q-57 57 -156 57h-174q-97 0 -154 -57 q-29 -30 -45.5 -77t-18 -66t-1.5 -33v-305z" />
<glyph unicode="c" horiz-adv-x="937" d="M102 297v10v832q0 20 3 46t23 80.5t56 92.5q48 48 113 63q47 13 88 13h154q124 0 200 -76q34 -34 54 -81.5t24 -77t4 -54.5v-10q0 -12 -10 -21.5t-23 -9.5t-21.5 10.5t-8.5 24.5q0 15 -2.5 37t-18.5 65.5t-43 71.5q-55 55 -147 55h-162q-43 0 -74 -8q-54 -18 -80 -47 q-65 -65 -65 -176v-840q0 -14 1.5 -33.5t18 -67t45.5 -77.5q56 -56 154 -56h178q101 0 156 58q27 28 42.5 71t18 64.5t2.5 38.5q0 14 10 23.5t27 9.5q10 0 18.5 -9.5t10.5 -21.5q0 -14 -2 -32t-9 -52.5t-26 -71.5t-47 -65q-73 -76 -201 -76h-178q-128 0 -201 76 q-82 85 -82 221z" />
<glyph unicode="d" horiz-adv-x="937" d="M106 33v1370q0 13 10 23t23 10h430q125 0 201 -76q82 -85 82 -223v-836q0 -14 -2 -32t-8.5 -53t-25 -72t-46.5 -66q-73 -76 -201 -76h-3h-3h-3h-3h-3h-3h-3h-7h-402q-13 0 -23 9.5t-10 21.5zM170 66h283h116q100 0 154 57q30 30 46.5 73.5t17.5 71.5l1 29q0 6 -2 8v842 q0 105 -63 168q-57 57 -154 57h-399v-1306z" />
<glyph unicode="e" horiz-adv-x="913" d="M102 31v1108q0 20 3 46t23 80.5t56 92.5q76 76 201 76h29h381q13 0 22.5 -9.5t9.5 -23.5q0 -12 -9.5 -21.5t-22.5 -9.5h-293h-117q-97 0 -154 -57q-65 -65 -65 -176v-306h371q12 0 21 -9t9 -21q0 -13 -9 -23t-21 -10h-371v-705h643q14 0 23.5 -9.5t9.5 -22.5 q0 -12 -10 -21.5t-23 -9.5h-272h-402q-13 0 -23 9.5t-10 21.5z" />
<glyph unicode="f" horiz-adv-x="843" d="M100 35q2 1104 2 1108q0 15 2 34t9 52t25.5 68t45.5 63q76 76 201 76h410q13 0 22.5 -9.5t9.5 -23.5q0 -12 -9.5 -21.5t-22.5 -9.5h-410q-99 0 -156 -57q-63 -66 -63 -176v-305h371q12 0 21 -9.5t9 -21.5q0 -13 -9 -23t-21 -10h-371v-735q0 -13 -10 -23t-23 -10t-23 10 t-10 23z" />
<glyph unicode="g" horiz-adv-x="937" d="M102 301v844q0 15 2 34t9 52t25.5 68t45.5 63q48 48 113 65q49 11 88 11h154q124 0 200 -76q82 -84 82 -221q0 -13 -9.5 -23t-23.5 -10q-13 1 -21.5 11.5t-8.5 23.5q0 15 -2.5 37t-19 65.5t-44.5 71.5q-54 57 -153 57h-154q-36 0 -74 -10q-50 -12 -80 -47 q-65 -65 -65 -176v-842q0 -16 2.5 -37.5t18.5 -65t44 -71.5q54 -57 154 -57h178q102 0 156 57q63 63 63 170v211h-262q-13 0 -23 9.5t-10 21.5q0 13 9.5 22.5t23.5 9.5h293q13 0 25 -8q8 -8 8 -24v-236q0 -25 -3.5 -53t-23.5 -80t-55 -88q-73 -76 -201 -76h-178 q-128 0 -201 76q-82 85 -82 221z" />
<glyph unicode="h" d="M102 31v1370q0 13 9.5 23t21.5 10q13 0 23 -10t10 -23v-574h610v574q0 13 10 23t23 10t23 -10t10 -23v-1370q0 -12 -9.5 -21.5t-21.5 -9.5q-13 0 -23 9.5t-10 21.5v733h-612v-733v-4q0 -10 -9.5 -18.5t-21.5 -8.5q-13 0 -23 9.5t-10 21.5z" />
<glyph unicode="i" horiz-adv-x="272" d="M102 694q0 635 4 721q0 13 9.5 23t21.5 10q13 0 23 -10t10 -23v-1382q0 -13 -10 -23t-23 -10q-12 0 -21.5 10t-9.5 23q-4 8 -4 661z" />
<glyph unicode="j" horiz-adv-x="837" d="M25 299q0 13 9 22t23 9q13 0 22 -10.5t9 -24.5q0 -15 2.5 -37t18.5 -65.5t43 -71.5q55 -55 153 -55h148q98 0 153 55q64 67 64 176v1104q0 14 9.5 23.5t22.5 9.5q14 0 23.5 -10t9.5 -23v-1106q0 -20 -3 -46t-23 -80.5t-56 -92.5q-76 -76 -200 -76h-148q-124 0 -199 78 q-81 81 -81 221z" />
<glyph unicode="k" horiz-adv-x="915" d="M102 33v1370q0 13 10 23t23 10q12 0 21.5 -10t9.5 -23v-569h387q88 6 139 57q64 67 64 176v72v264q0 14 9.5 23.5t22.5 9.5q12 0 21.5 -10t9.5 -23q2 -295 2 -299v-39q0 -20 -3 -46t-23.5 -80.5t-57.5 -92.5q-25 -24 -47 -37q38 -17 72 -51q82 -85 82 -221v-209v-295 q0 -12 -10 -21.5t-23 -9.5q-12 0 -21.5 9.5t-11.5 21.5v295q0 4 2 10v199q0 14 -1.5 33.5t-18 67t-45.5 77.5q-55 55 -158 55h-389v-737q0 -12 -10 -21.5t-23 -9.5t-23 9.5t-10 21.5z" />
<glyph unicode="l" horiz-adv-x="843" d="M102 293v1108q0 13 9.5 23t21.5 10q13 0 23 -10t10 -23v-1104q0 -110 63 -176q58 -58 156 -58h410q13 0 22.5 -9t9.5 -21q0 -14 -9.5 -23.5t-22.5 -9.5h-410q-125 0 -201 76q-27 28 -45.5 63t-25.5 68t-9 52t-2 34z" />
<glyph unicode="m" horiz-adv-x="1124" d="M102 33v1370q0 13 11 22t26 9q19 0 27 -23l131 -418l266 -852l297 955l98 315q8 23 33 23q12 0 21.5 -8.5t9.5 -22.5v-1370q0 -13 -9.5 -23t-21.5 -10q-13 0 -23 10t-10 23v1122l13 102l-25 -104l-352 -1130q0 -10 -10.5 -16.5t-22.5 -6.5q-10 0 -17.5 6t-9.5 12l-2 5 l-352 1130l-24 104l12 -102v-1122q0 -13 -10 -23t-23 -10q-12 0 -21.5 9.5t-11.5 23.5z" />
<glyph unicode="n" horiz-adv-x="942" d="M102 33v1370q0 13 10 23t23 10q4 0 6 -2q1 0 4.5 1t4.5 1q18 0 26 -19l76 -157l500 -1065l28 -74l-6 67v1215q2 13 11.5 23t21.5 10q13 0 23 -10t10 -23v-1370q0 -13 -10 -23t-23 -10q-1 0 -3 1t-3 1t-4 -1t-4 -1q-18 0 -29 18l-31 70l-545 1153l-28 74l6 -68v-1214 q0 -13 -10 -23t-23 -10q-12 0 -21.5 10t-9.5 23z" />
<glyph unicode="o" d="M102 299v842q0 20 3 46t23 80t56 91q75 78 201 78h174q126 0 201 -78q82 -82 82 -221v-844q0 -22 -3.5 -50.5t-24 -79t-54.5 -85.5q-75 -78 -201 -78h-174q-126 0 -201 78q-82 85 -82 221zM166 297q0 -16 3 -39t19 -66t43 -71q55 -55 154 -55h174q101 0 156 55 q63 66 63 176v844q0 16 -2 37.5t-18 65t-43 71.5q-55 55 -156 55h-174q-99 0 -154 -55q-65 -65 -65 -176v-842z" />
<glyph unicode="p" horiz-adv-x="913" d="M102 33v1110q0 15 2 34t9 52t25.5 68t45.5 63q76 76 201 76h174q125 0 201 -76q40 -41 61 -101t21 -122v-33v-201q0 -21 -3 -47.5t-23 -81t-56 -92.5q-76 -76 -201 -76h-393v-573q0 -12 -10 -21.5t-23 -9.5q-12 0 -21.5 9.5t-9.5 21.5zM166 670h393q97 0 154 57 q65 65 65 176v72v164q0 14 -1.5 33t-18 66t-45.5 77q-57 57 -154 57h-174q-99 0 -156 -57q-63 -66 -63 -176v-469z" />
<glyph unicode="q" horiz-adv-x="946" d="M102 297v842q0 20 3 46t23.5 80t57.5 91q75 78 199 78h176q123 0 199 -76q40 -42 62 -101t22 -120v-846q0 -87 -43 -162l71 -74q9 -9 9 -22q0 -14 -9 -23q-8 -10 -26 -10q-14 4 -19 10q-66 66 -67 66q-73 -76 -199 -76h-176q-125 0 -201 76q-82 85 -82 221zM168 295 q0 -17 2.5 -39t18 -65t42.5 -70q55 -58 154 -58h176q95 0 156 58l-78 78l-25 20l-59 64q-8 8 -8 22q0 11 8 23q8 8 23 8q14 0 22 -10l154 -150q24 56 24 119v844q0 16 -2 37.5t-18 65t-43 71.5q-57 57 -154 57h-176q-97 0 -154 -57q-63 -66 -63 -176v-842z" />
<glyph unicode="r" horiz-adv-x="913" d="M72 31v1370q0 14 9.5 23.5t22.5 9.5q5 0 9 -2q2 2 8 2h407q125 0 201 -76q34 -34 54 -81t24 -76t4 -54v-10v-164v-74v-10q0 -25 -4 -54.5t-24 -77t-54 -81.5q-22 -22 -57 -43q36 -22 57 -45q34 -34 54 -80.5t24 -75t4 -53.5v-10v-338q0 -12 -9.5 -21.5t-21.5 -9.5 q-13 0 -22.5 9.5t-9.5 21.5v338q0 109 -64 176q-52 52 -143 55h-142h-264v-569q0 -12 -9.5 -21.5t-21.5 -9.5q-13 0 -22.5 9.5t-9.5 21.5zM135 666h262h144q88 0 143 55q27 28 43 71.5t18.5 65.5t2.5 37v78v164q0 109 -64 176q-57 57 -156 57h-20h-373v-704z" />
<glyph unicode="s" d="M100 297q0 13 10.5 23t22.5 10q14 -1 23.5 -11.5t9.5 -23.5q0 -16 2 -37.5t18 -65t43 -71.5q55 -55 154 -55h182q99 0 154 55q63 66 63 176v72v178q0 16 -2 37.5t-18 65t-43 71.5q-55 55 -156 55h-162h-24q-123 3 -195 78q-72 72 -82 209v39v14q9 173 82 248 q73 76 201 76h182q128 0 201 -76q36 -38 56 -92t23 -80.5t3 -48.5q0 -13 -9.5 -22t-23.5 -9t-23.5 10.5t-9.5 24.5q0 16 -2 37t-18 64t-43 71q-57 57 -154 57h-182q-100 0 -154 -57q-54 -54 -65 -207v-41q0 -16 2 -37t18 -64t43 -73q55 -55 160 -55h10h168q125 0 201 -76 q82 -85 82 -223v-246q0 -21 -3 -47.5t-23 -81t-56 -92.5q-76 -76 -201 -76h-182q-125 0 -201 76q-36 38 -56 92.5t-23 81t-3 47.5z" />
<glyph unicode="t" horiz-adv-x="899" d="M29 1405q0 12 9 21.5t21 9.5h781q13 0 22.5 -9.5t9.5 -21.5q0 -14 -9.5 -23.5t-22.5 -9.5h-359v-1337q0 -13 -9 -23t-21 -10q-13 0 -23 10t-10 23v1337h-359q-12 0 -21 10t-9 23z" />
<glyph unicode="u" d="M102 289v10v1116q0 13 10 23t23 10q12 0 21.5 -10t9.5 -23v-1120q0 -17 2.5 -38.5t18 -64.5t42.5 -71q55 -55 156 -55h174q99 0 154 55q36 37 49.5 85.5t13.5 82.5v8v1118q0 13 10 23t23 10t23 -10t10 -23v-1122q0 -22 -3.5 -50.5t-24 -79.5t-54.5 -87q-76 -76 -201 -76 h-174q-125 0 -201 76q-34 34 -54 81.5t-24 77t-4 54.5z" />
<glyph unicode="v" horiz-adv-x="831" d="M-6 1399q0 27 22 35h9q22 0 32 -23l359 -1261l358 1261q9 23 39 23q25 -6 25 -33v-8l-392 -1368q-7 -25 -30 -25q-11 0 -20.5 7.5t-10.5 17.5z" />
<glyph unicode="w" horiz-adv-x="1161" d="M-20 1382v9q0 21 24 30h8q25 0 31 -24l295 -1227l211 883l-78 329v9q0 21 25 30h8q25 0 31 -24l294 -1227l295 1227q6 24 39 24q25 -7 25 -39l-328 -1355q-3 -22 -24 -25l-2 -2h-3h-2h-2h-2q-1 0 -2 1t-2 1q-18 3 -24 25l-213 888l-215 -888q-7 -25 -33 -27q-5 0 -6 2 q-19 3 -25 25z" />
<glyph unicode="x" horiz-adv-x="845" d="M41 33q0 6 4 14l342 741l-276 601q-5 10 -5 14q0 23 19 29q8 4 14 4q18 0 29 -19l254 -553l256 553q11 19 29 19q6 0 14 -4q18 -7 18 -29q0 -6 -4 -14l-276 -601l342 -741q4 -8 4 -14q0 -19 -21 -29q-8 -4 -12 -4q-22 0 -29 20l-321 693l-320 -693q-7 -20 -28 -20 q-3 0 -15 4q-18 11 -18 29z" />
<glyph unicode="y" horiz-adv-x="761" d="M0 1403q0 22 18 31q4 2 15 2q19 0 28 -19l320 -692l319 692q10 19 29 19q10 0 14 -2q19 -10 19 -29q0 -6 -4 -14l-344 -748v-610q0 -13 -10 -23t-23 -10t-23 10t-10 23v610l-346 748q-2 4 -2 12z" />
<glyph unicode="z" horiz-adv-x="845" d="M98 31q0 8 4 16l619 1333q-25 0 -100 -2t-138 -2q-85 0 -169 0.5t-136 1.5t-47 2q-13 0 -23 9.5t-10 21.5q0 13 9.5 22t23.5 11h641h8q4 -2 6 -4q19 -10 19 -27q0 -6 -4 -14l-619 -1336h590q14 0 23.5 -9.5t9.5 -22.5q0 -12 -10 -21.5t-23 -9.5h-641q-13 0 -23 9.5 t-10 21.5z" />
<glyph unicode="{" horiz-adv-x="391" d="M-76 715v8q0 15 8 20l263 265v383q0 20 2.5 45.5t22.5 80.5t56 93q47 47 115 65q50 11 88 11q12 0 21.5 -10t9.5 -23q0 -23 -23 -31h-10q-27 0 -67 -8q-52 -15 -86 -49q-64 -67 -64 -176v-402q-4 -12 -10 -16l-60 -62l-22 -20l-92 -92l-76 -76l250 -250q7 -5 10 -25v-393 q0 -16 2.5 -38t18.5 -66t43 -72q55 -55 155 -55q12 0 21.5 -10t9.5 -23q0 -12 -9.5 -21.5t-21.5 -9.5q-127 0 -200 76q-40 40 -62 99.5t-22 121.5v381l-89 88l-92 92l-22 21l-60 61q-8 8 -8 17z" />
<glyph unicode="|" horiz-adv-x="331" d="M137 -213v1866q0 12 7.5 21t19.5 9q26 0 26 -30v-1866q0 -35 -26 -35q-12 0 -19.5 10t-7.5 25z" />
<glyph unicode="}" horiz-adv-x="391" d="M-119 -211q0 13 9.5 23t21.5 10q101 0 156 55q27 28 43 72t18 66t2 38v393q3 20 10 25l250 250l-76 76l-92 92l-22 20q-1 1 -60 62q-6 4 -10 16v402q0 110 -63 176q-34 34 -86 49q-40 8 -68 8h-10q-23 8 -23 31q0 13 9.5 23t21.5 10q38 0 88 -11q68 -18 115 -65 q36 -38 56 -92.5t23 -80.5t3 -46v-383l262 -265q8 -5 8 -20v-8q0 -9 -8 -17l-60 -61q1 -1 -22 -21l-92 -92l-88 -88v-381q0 -62 -22 -121.5t-62 -99.5q-73 -76 -201 -76q-12 0 -21.5 9.5t-9.5 21.5z" />
<glyph unicode="~" horiz-adv-x="942" d="M41 723q0 12 10 22q113 113 232 113q100 0 182 -82l55 -55q68 -68 148 -68q90 0 178 88q9 9 22 9q14 0 23 -9q10 -10 10 -22q0 -13 -10 -23q-108 -108 -223 -108q-102 0 -193 88l-55 55q-64 64 -137 64q-92 0 -187 -95q-10 -10 -22 -10q-13 0 -23 10t-10 23z" />
<glyph unicode="&#xa4;" horiz-adv-x="532" d="M66 545q0 9 6 18l63 62q-33 45 -33 96t33 96l-61 64q-6 6 -6 16t8 18q7 7 16 7q8 0 19 -7l61 -63q45 33 94 33q54 0 99 -33l63 61q7 7 16 7q10 0 19 -9q6 -6 6 -16q0 -12 -6 -18l-64 -62q31 -42 31 -94q0 -56 -31 -98l62 -64q6 -6 6 -16q0 -11 -8 -19q-6 -6 -17 -6 q-9 0 -18 6l-62 64q-45 -33 -96 -33t-96 33l-64 -62q-6 -6 -16 -6q-13 0 -18 8q-6 6 -6 17zM152 721q0 -47 34 -82t80 -35q47 0 82 35t35 82q0 46 -35 80.5t-82 34.5q-46 0 -80 -34.5t-34 -80.5z" />
<glyph unicode="&#xa6;" horiz-adv-x="1705" />
<glyph unicode="&#xa7;" horiz-adv-x="788" d="M72 768v410q0 4 2 6q3 100 67 170q80 86 207 86h227q13 0 23 -10t10 -23t-10 -23t-23 -10h-227q-102 0 -156.5 -62t-54.5 -145q0 -78 51 -138t146 -66h104q126 0 197 -74q82 -82 82 -219v-445q-9 -90 -87.5 -157.5t-191.5 -67.5h-225q-13 0 -23 9.5t-10 21.5 q0 13 9.5 22.5t23.5 9.5h225q103 0 158 62t55 145q0 82 -55 143.5t-158 61.5h-88q-124 0 -198 74q-80 86 -80 219zM137 766q0 -15 2.5 -37t18 -64.5t41.5 -70.5q53 -53 141 -53h98q138 0 213 -92v225q0 16 -2 37t-17.5 63.5t-41.5 69.5q-53 53 -141 53h-101q-133 0 -211 92 v-223z" />
<glyph unicode="&#xa9;" horiz-adv-x="663" d="M72 1178q0 106 76.5 182t183.5 76t183.5 -76t76.5 -182q0 -107 -76.5 -183.5t-183.5 -76.5t-183.5 76.5t-76.5 183.5zM121 1178q0 -88 61.5 -149.5t149.5 -61.5q87 0 149 62t62 149q0 86 -62 147t-149 61q-88 0 -149.5 -61t-61.5 -147zM221 1098v159q0 41 25 68 q14 14 33 21q16 4 30 4h39q37 0 62 -25q26 -26 26 -68q0 -9 -7 -16.5t-19 -7.5q-9 0 -16 7.5t-7 16.5q0 23 -12 33q-10 10 -27 10h-10h-29q-10 0 -14 -2l-14 -8q-5 -8 -7 -8q0 -12 -4 -12v-13v-14v-106v-41q0 -20 13 -33q10 -10 26 -10h15h30q17 0 27 10q12 12 12 33 q0 20 25 24q9 0 16.5 -7t7.5 -17q0 -42 -26 -68q-24 -24 -62 -24h-12h-33q-34 0 -63 24q-25 28 -25 70z" />
<glyph unicode="&#xab;" horiz-adv-x="753" d="M102 717v6q0 16 9 22l272 273q12 8 23 8q6 0 22 -8q8 -8 8 -21q0 -18 -8 -26l-59 -60l-25 -22l-90 -90l-76 -78l258 -240q2 -6 2 -20q0 -23 -10 -33t-25 -10q-10 0 -20 10l-98 96l-92 92l-23 21l-59 63q-9 9 -9 17zM315 717v6q0 3 3.5 11t7.5 11l270 273q12 8 22 8 q13 0 25 -8q10 -15 10 -21q0 -1 -1 -3t-1 -3q0 -8 -8 -20l-61 -60q-1 1 -21 -22l-92 -90l-76 -78l250 -248q8 -8 8 -22q0 -15 -8 -23q-10 -10 -22 -10q-10 0 -25 10l-96 96l-92 92l-23 21l-59 63q-4 2 -11 17z" />
<glyph unicode="&#xac;" horiz-adv-x="1124" d="M102 870q0 14 10 23.5t23 9.5h856q12 0 21.5 -10t9.5 -23v-299q0 -12 -9 -21.5t-22 -10.5q-14 0 -23.5 9.5t-9.5 22.5v267h-823q-14 0 -23.5 9.5t-9.5 22.5z" />
<glyph unicode="&#xad;" horiz-adv-x="569" d="M102 721q0 12 10 21.5t23 9.5h297q15 0 25 -9.5t10 -21.5q0 -15 -10 -25t-25 -10h-297q-14 0 -23.5 10t-9.5 25z" />
<glyph unicode="&#xae;" horiz-adv-x="663" d="M72 1178q0 106 76.5 182t183.5 76t183.5 -76t76.5 -182q0 -107 -76.5 -183.5t-183.5 -76.5t-183.5 76.5t-76.5 183.5zM121 1178q0 -87 62 -149t149 -62q88 0 149.5 61.5t61.5 149.5q0 86 -61.5 147t-149.5 61q-87 0 -149 -61t-62 -147zM221 1028v297q0 9 8.5 17t20.5 8 h72h32q34 0 64 -25q24 -26 24 -68v-10v-16q0 -42 -24 -68q24 -26 24 -67v-68q0 -9 -7 -16.5t-17 -7.5t-17.5 7.5t-7.5 16.5v70q0 20 -12 32q-9 9 -27 9h-3h-3h-3h-3h-3h-3h-3h-3h-8h-52v-111q0 -9 -7 -16.5t-17 -7.5q-9 0 -17 7.5t-8 16.5zM270 1188h52h3h3h3h3h3h3h3h3h8 q17 0 27 10q12 12 12 35v24q0 23 -12 33q-10 10 -33 10h-78v-112z" />
<glyph unicode="&#xb0;" horiz-adv-x="571" d="M133 1288q0 63 44.5 107.5t107.5 44.5t108 -44.5t45 -107.5t-45 -107t-108 -44t-107.5 44t-44.5 107zM193 1288q0 -38 27 -65t65 -27t64 27t26 65q0 37 -26 63.5t-64 26.5t-65 -26.5t-27 -63.5z" />
<glyph unicode="&#xb1;" d="M98 303q0 14 10 23.5t25 9.5h676q12 0 21.5 -10t9.5 -23q0 -12 -9.5 -21.5t-21.5 -9.5h-676q-15 0 -25 9.5t-10 21.5zM102 801q0 12 10 21t23 9h305v306q0 13 9.5 23.5t21.5 10.5q15 0 25 -10t10 -24v-306h305q12 0 20.5 -9t10.5 -21q0 -15 -9.5 -25t-21.5 -10h-305v-305 q0 -12 -10 -21.5t-25 -9.5q-12 0 -21.5 9.5t-9.5 21.5v305h-305q-14 0 -23.5 10t-9.5 25z" />
<glyph unicode="&#xb6;" horiz-adv-x="843" d="M92 961v139v37q0 20 3 46t23 80.5t56 92.5q73 76 201 76h334q9 0 16 -5q12 -5 16 -28v-1368q0 -13 -9 -22t-23 -11q-13 0 -23 10t-10 23v1337h-131v-1337q0 -24 -25 -31q-2 -2 -10 -2q-14 0 -23.5 10t-9.5 23v633h-102q-127 0 -201 77q-40 40 -61 99t-21 121z" />
<glyph unicode="&#xb7;" horiz-adv-x="946" d="M201 481q0 13 10 23l217 217l-217 215q-10 10 -10 22q0 10 10 23q10 10 25 10q12 0 22 -10l215 -215l217 215q10 10 23 10q12 0 22 -10q8 -8 8 -23q0 -14 -8 -22l-217 -215l217 -217q8 -8 8 -23q0 -14 -8 -22q-10 -10 -22 -10q-13 0 -23 10l-217 215l-215 -215 q-8 -8 -20 -8q-16 0 -27 8q-10 10 -10 22z" />
<glyph unicode="&#xbb;" horiz-adv-x="755" d="M102 997q0 5 11 21q12 8 24 8q11 0 23 -8l270 -273q10 -7 10 -22v-6q-8 -15 -10 -17l-59 -63l-23 -21l-92 -92l-96 -96q-15 -10 -25 -10q-12 0 -22 10q-9 9 -9 23q0 13 9 22l249 248l-75 78l-92 90l-21 22l-61 60q-9 13 -9 20q0 1 -1 3t-1 3zM317 461q0 14 2 20l259 240 l-76 78l-90 90l-25 22l-59 60q-9 9 -9 26q0 12 9 21q16 8 22 8q11 0 23 -8l272 -273q8 -5 8 -22v-6q0 -9 -8 -17l-59 -63l-23 -21l-92 -92l-98 -96q-10 -10 -21 -10q-14 0 -24 10q-11 11 -11 33z" />
<glyph unicode="&#x2000;" horiz-adv-x="937" />
<glyph unicode="&#x2001;" horiz-adv-x="1874" />
<glyph unicode="&#x2002;" horiz-adv-x="937" />
<glyph unicode="&#x2003;" horiz-adv-x="1874" />
<glyph unicode="&#x2004;" horiz-adv-x="624" />
<glyph unicode="&#x2005;" horiz-adv-x="468" />
<glyph unicode="&#x2006;" horiz-adv-x="312" />
<glyph unicode="&#x2007;" horiz-adv-x="312" />
<glyph unicode="&#x2008;" horiz-adv-x="234" />
<glyph unicode="&#x2009;" horiz-adv-x="374" />
<glyph unicode="&#x200a;" horiz-adv-x="104" />
<glyph unicode="&#x2010;" horiz-adv-x="569" d="M102 721q0 12 10 21.5t23 9.5h297q15 0 25 -9.5t10 -21.5q0 -15 -10 -25t-25 -10h-297q-14 0 -23.5 10t-9.5 25z" />
<glyph unicode="&#x2011;" horiz-adv-x="569" d="M102 721q0 12 10 21.5t23 9.5h297q15 0 25 -9.5t10 -21.5q0 -15 -10 -25t-25 -10h-297q-14 0 -23.5 10t-9.5 25z" />
<glyph unicode="&#x2012;" horiz-adv-x="569" d="M102 721q0 12 10 21.5t23 9.5h297q15 0 25 -9.5t10 -21.5q0 -15 -10 -25t-25 -10h-297q-14 0 -23.5 10t-9.5 25z" />
<glyph unicode="&#x2013;" horiz-adv-x="946" d="M102 723q0 15 9.5 25t23.5 10h674q15 0 25 -10t10 -25q0 -12 -10 -21.5t-25 -9.5h-674q-13 0 -23 9.5t-10 21.5z" />
<glyph unicode="&#x2014;" horiz-adv-x="1126" d="M102 721q0 15 9.5 25t23.5 10h854q15 0 25 -10t10 -25q0 -12 -10 -21.5t-25 -9.5h-854q-13 0 -23 9.5t-10 21.5z" />
<glyph unicode="&#x2018;" horiz-adv-x="1705" />
<glyph unicode="&#x2019;" horiz-adv-x="1705" />
<glyph unicode="&#x201a;" horiz-adv-x="276" d="M61 -115q0 1 1 4.5t1 4.5l60 186q6 22 31 22h8q22 -9 22 -32v-9l-59 -186q-6 -22 -31 -22q-6 0 -8 2q-25 7 -25 30z" />
<glyph unicode="&#x201c;" horiz-adv-x="448" d="M92 1397q0 11 7.5 20.5t17.5 12.5h8q24 0 31 -23l49 -164v-8q0 -24 -23 -31q-2 -2 -8 -2q-24 0 -31 23l-49 164q0 2 -1 4.5t-1 3.5zM231 1397q0 11 7.5 20.5t17.5 12.5h8q24 0 31 -23l49 -164v-8q0 -25 -22 -31q-2 -2 -9 -2q-23 0 -30 23l-50 164q0 2 -1 4.5t-1 3.5z" />
<glyph unicode="&#x201d;" horiz-adv-x="411" d="M74 1237v8l49 164q10 23 33 23h8q22 -7 22 -31q0 -6 -2 -10l-49 -164q-7 -23 -31 -23q-4 0 -8 2q-22 6 -22 31zM213 1237v8l49 164q7 23 31 23h8q10 -3 17.5 -12.5t7.5 -20.5q0 -1 -1 -3.5t-1 -4.5l-50 -164q-7 -23 -30 -23q-6 0 -8 2q-23 7 -23 31z" />
<glyph unicode="&#x201e;" horiz-adv-x="397" d="M61 -115q0 1 1 4.5t1 4.5l60 186q6 22 31 22h8q22 -9 22 -32v-9l-59 -186q-6 -22 -31 -22q-6 0 -8 2q-25 7 -25 30zM211 -115q0 1 1 4.5t1 4.5l59 186q6 22 31 22h8q23 -10 23 -32v-9l-60 -186q-6 -22 -30 -22q-6 0 -8 2q-25 7 -25 30z" />
<glyph unicode="&#x2022;" horiz-adv-x="571" d="M133 721q0 63 44.5 107t107.5 44t108 -44t45 -107t-45 -107.5t-108 -44.5t-107.5 44.5t-44.5 107.5z" />
<glyph unicode="&#x2026;" horiz-adv-x="835" d="M74 53q0 22 15.5 37.5t37.5 15.5t37.5 -15t15.5 -38q0 -22 -15.5 -37.5t-37.5 -15.5t-37.5 15.5t-15.5 37.5zM352 53q0 22 16 37.5t38 15.5t37.5 -15t15.5 -38q0 -22 -15.5 -37.5t-37.5 -15.5t-38 15.5t-16 37.5zM631 53q0 22 15.5 37.5t37.5 15.5t37.5 -15t15.5 -38 q0 -22 -15.5 -37.5t-37.5 -15.5t-37.5 15.5t-15.5 37.5z" />
<glyph unicode="&#x202f;" horiz-adv-x="374" />
<glyph unicode="&#x2039;" horiz-adv-x="542" d="M102 715v6q0 5 1.5 9t5 8t4.5 7l272 271q7 10 23 10q12 0 22 -10t10 -23q-8 -20 -10 -22l-61 -62q-1 0 -21 -20l-92 -92l-76 -74l250 -250q8 -8 8 -22q0 -15 -8 -23q-10 -10 -22 -10q-18 3 -23 10l-96 96l-94 92l-23 21l-59 61z" />
<glyph unicode="&#x203a;" horiz-adv-x="542" d="M102 993q0 12 11 23q10 10 22 10q16 0 23 -10l272 -271q1 -2 4 -6.5t4.5 -8.5t1.5 -9v-6l-10 -17l-59 -61l-23 -21l-94 -92l-96 -96q-5 -7 -23 -10q-12 0 -22 10q-9 9 -9 23q0 13 9 22l249 250l-75 74l-92 92l-21 20l-61 62q-4 4 -11 22z" />
<glyph unicode="&#x205f;" horiz-adv-x="468" />
<glyph unicode="&#x20ac;" horiz-adv-x="964" d="M-51 604q0 13 9.5 23t21.5 10h143v160h-143q-12 0 -21.5 9.5t-9.5 24.5q0 12 9.5 21.5t21.5 9.5h143v277q0 20 3 46t23 80.5t56 92.5q55 52 112 65q37 11 91 11h153q126 0 199 -76q36 -38 56 -92.5t23 -81t3 -47.5q0 -12 -9 -22t-22 -11q-13 0 -22 9.5t-9 25.5 q0 12 -1.5 32t-18 66.5t-45.5 75.5q-52 55 -154 55h-155q-45 0 -72 -8q-52 -13 -82 -47q-64 -67 -64 -174v-277h467q12 0 22 -9t11 -22q0 -15 -9.5 -24.5t-21.5 -9.5h-469v-160h467q13 0 22 -9.5t11 -23.5q0 -13 -9.5 -23t-21.5 -10h-469v-276q0 -15 2.5 -37t18.5 -65.5 t43 -73.5q59 -56 156 -56h178q95 0 153 58q28 28 44.5 71.5t19 66t2.5 38.5q0 13 10 22t27 9q23 0 26 -31q0 -13 -2 -31t-9 -53t-26 -72t-47 -65q-73 -76 -198 -76h-178q-125 0 -201 76q-84 84 -84 221v274h-143q-12 0 -21.5 10t-9.5 23z" />
<glyph unicode="&#x2122;" horiz-adv-x="686" d="M6 1409q0 9 7.5 17t17.5 8h217q10 0 17 -8t7 -17q0 -11 -7 -18t-17 -7h-84v-272q0 -9 -7.5 -17t-17.5 -8t-17 8t-7 17v272h-84q-11 0 -18 7t-7 18zM326 1112v297q0 9 8 17t18 8q1 0 4 -1t4 -1q6 -2 15 -15l94 -239l96 239q7 17 21 17h8q2 0 5.5 -0.5t9 -7t5.5 -17.5v-297 q0 -8 -7 -16.5t-17 -8.5q-9 0 -17 8t-8 17v174l-71 -182q-2 -6 -10 -11.5t-15 -5.5q-20 0 -27 23l-67 172v-170q0 -8 -7.5 -16.5t-17.5 -8.5q-9 0 -16.5 8t-7.5 17z" />
<glyph unicode="&#x25fc;" horiz-adv-x="1433" d="M0 0v1434h1434v-1434h-1434z" />
</font>
</defs>
</svg>
